<mxfile host="app.diagrams.net" modified="2024-07-23T14:12:16.081Z" agent="Mozilla/5.0 (Windows NT 10.0; Win64; x64) AppleWebKit/537.36 (KHTML, like Gecko) Chrome/126.0.0.0 Safari/537.36" etag="Yd0C7ZwzzGpvRFjRZp1b" version="24.7.1" type="device">
  <diagram name="Page-1" id="m7c7CE8h6a8L5IP_1kKD">
    <mxGraphModel dx="2705" dy="1003" grid="1" gridSize="10" guides="1" tooltips="1" connect="1" arrows="1" fold="1" page="1" pageScale="1" pageWidth="827" pageHeight="1169" math="0" shadow="0">
      <root>
        <mxCell id="0" />
        <mxCell id="1" parent="0" />
        <mxCell id="kRGy6xG7EIOuW9_oT-NQ-2" value="" style="rounded=0;whiteSpace=wrap;html=1;" parent="1" vertex="1">
          <mxGeometry x="90" y="44" width="680" height="1080" as="geometry" />
        </mxCell>
        <mxCell id="kRGy6xG7EIOuW9_oT-NQ-4" value="&lt;font style=&quot;font-size: 18px;&quot;&gt;Login&lt;/font&gt;" style="ellipse;whiteSpace=wrap;html=1;fontStyle=1" parent="1" vertex="1">
          <mxGeometry x="340" y="580.5" width="123" height="59" as="geometry" />
        </mxCell>
        <mxCell id="kRGy6xG7EIOuW9_oT-NQ-6" value="Admin" style="shape=umlActor;verticalLabelPosition=bottom;verticalAlign=top;html=1;outlineConnect=0;fontStyle=1" parent="1" vertex="1">
          <mxGeometry x="-70" y="580.5" width="30" height="66" as="geometry" />
        </mxCell>
        <mxCell id="kRGy6xG7EIOuW9_oT-NQ-13" value="" style="endArrow=none;html=1;rounded=0;strokeWidth=2;fontStyle=1;entryX=0;entryY=0.5;entryDx=0;entryDy=0;" parent="1" target="kRGy6xG7EIOuW9_oT-NQ-4" edge="1">
          <mxGeometry width="50" height="50" relative="1" as="geometry">
            <mxPoint x="-30" y="610" as="sourcePoint" />
            <mxPoint x="170.01039738933605" y="612.4942399692861" as="targetPoint" />
          </mxGeometry>
        </mxCell>
        <mxCell id="kRGy6xG7EIOuW9_oT-NQ-18" value="&lt;font style=&quot;font-size: 11px;&quot;&gt;Memilih menu Data Kriteria&lt;/font&gt;" style="ellipse;whiteSpace=wrap;html=1;fontStyle=1" parent="1" vertex="1">
          <mxGeometry x="232" y="129.5" width="86" height="46" as="geometry" />
        </mxCell>
        <mxCell id="kRGy6xG7EIOuW9_oT-NQ-19" value="&lt;font style=&quot;font-size: 12px;&quot;&gt;Mengelola Data Kriteria&lt;/font&gt;" style="ellipse;whiteSpace=wrap;html=1;fontStyle=1" parent="1" vertex="1">
          <mxGeometry x="402" y="120" width="100" height="63" as="geometry" />
        </mxCell>
        <mxCell id="kRGy6xG7EIOuW9_oT-NQ-20" value="&lt;font style=&quot;font-size: 11px;&quot;&gt;Tambah&lt;/font&gt;" style="ellipse;whiteSpace=wrap;html=1;" parent="1" vertex="1">
          <mxGeometry x="419" y="54" width="66" height="30" as="geometry" />
        </mxCell>
        <mxCell id="kRGy6xG7EIOuW9_oT-NQ-23" value="&lt;font style=&quot;font-size: 11px;&quot;&gt;Ubah&lt;/font&gt;" style="ellipse;whiteSpace=wrap;html=1;fontStyle=1" parent="1" vertex="1">
          <mxGeometry x="512" y="76" width="66" height="30" as="geometry" />
        </mxCell>
        <mxCell id="kRGy6xG7EIOuW9_oT-NQ-24" value="&lt;font style=&quot;font-size: 11px;&quot;&gt;Hapus&lt;/font&gt;" style="ellipse;whiteSpace=wrap;html=1;fontStyle=1" parent="1" vertex="1">
          <mxGeometry x="549" y="136.5" width="66" height="30" as="geometry" />
        </mxCell>
        <mxCell id="kRGy6xG7EIOuW9_oT-NQ-25" value="" style="endArrow=block;html=1;rounded=0;entryX=0.5;entryY=0;entryDx=0;entryDy=0;exitX=0.5;exitY=1;exitDx=0;exitDy=0;strokeWidth=2;fontStyle=1;endFill=0;" parent="1" source="kRGy6xG7EIOuW9_oT-NQ-20" target="kRGy6xG7EIOuW9_oT-NQ-19" edge="1">
          <mxGeometry width="50" height="50" relative="1" as="geometry">
            <mxPoint x="602" y="507" as="sourcePoint" />
            <mxPoint x="652" y="457" as="targetPoint" />
          </mxGeometry>
        </mxCell>
        <mxCell id="kRGy6xG7EIOuW9_oT-NQ-26" value="" style="endArrow=block;html=1;rounded=0;entryX=0.799;entryY=0.105;entryDx=0;entryDy=0;entryPerimeter=0;strokeWidth=2;fontStyle=1;endFill=0;" parent="1" source="kRGy6xG7EIOuW9_oT-NQ-23" target="kRGy6xG7EIOuW9_oT-NQ-19" edge="1">
          <mxGeometry width="50" height="50" relative="1" as="geometry">
            <mxPoint x="602" y="507" as="sourcePoint" />
            <mxPoint x="476" y="144" as="targetPoint" />
          </mxGeometry>
        </mxCell>
        <mxCell id="kRGy6xG7EIOuW9_oT-NQ-27" value="" style="endArrow=block;html=1;rounded=0;entryX=1;entryY=0.5;entryDx=0;entryDy=0;exitX=0;exitY=0.5;exitDx=0;exitDy=0;strokeWidth=2;fontStyle=1;endFill=0;" parent="1" source="kRGy6xG7EIOuW9_oT-NQ-24" target="kRGy6xG7EIOuW9_oT-NQ-19" edge="1">
          <mxGeometry width="50" height="50" relative="1" as="geometry">
            <mxPoint x="602" y="507" as="sourcePoint" />
            <mxPoint x="652" y="457" as="targetPoint" />
          </mxGeometry>
        </mxCell>
        <mxCell id="kRGy6xG7EIOuW9_oT-NQ-37" value="&amp;lt;&amp;lt;include&amp;gt;&amp;gt;" style="text;html=1;strokeColor=none;fillColor=none;align=center;verticalAlign=middle;whiteSpace=wrap;rounded=0;fontStyle=1" parent="1" vertex="1">
          <mxGeometry x="340" y="150.5" width="60" height="30" as="geometry" />
        </mxCell>
        <mxCell id="kRGy6xG7EIOuW9_oT-NQ-38" value="" style="endArrow=block;html=1;rounded=0;entryX=1;entryY=0.5;entryDx=0;entryDy=0;exitX=0;exitY=0.5;exitDx=0;exitDy=0;strokeWidth=3;fontStyle=1;endFill=0;" parent="1" source="kRGy6xG7EIOuW9_oT-NQ-19" target="kRGy6xG7EIOuW9_oT-NQ-18" edge="1">
          <mxGeometry width="50" height="50" relative="1" as="geometry">
            <mxPoint x="572" y="507" as="sourcePoint" />
            <mxPoint x="622" y="457" as="targetPoint" />
          </mxGeometry>
        </mxCell>
        <mxCell id="kRGy6xG7EIOuW9_oT-NQ-39" value="" style="endArrow=none;html=1;rounded=0;entryX=0;entryY=0.5;entryDx=0;entryDy=0;strokeWidth=2;fontStyle=1" parent="1" target="kRGy6xG7EIOuW9_oT-NQ-18" edge="1">
          <mxGeometry width="50" height="50" relative="1" as="geometry">
            <mxPoint x="-30" y="610" as="sourcePoint" />
            <mxPoint x="510" y="480" as="targetPoint" />
          </mxGeometry>
        </mxCell>
        <mxCell id="kRGy6xG7EIOuW9_oT-NQ-51" value="&lt;font style=&quot;font-size: 11px;&quot;&gt;Memilih menu Data Kriteria&lt;/font&gt;" style="ellipse;whiteSpace=wrap;html=1;fontStyle=1" parent="1" vertex="1">
          <mxGeometry x="235" y="389.5" width="86" height="46" as="geometry" />
        </mxCell>
        <mxCell id="kRGy6xG7EIOuW9_oT-NQ-52" value="&lt;font style=&quot;font-size: 12px;&quot;&gt;Mengelola Data Alternatif&lt;/font&gt;" style="ellipse;whiteSpace=wrap;html=1;fontStyle=1" parent="1" vertex="1">
          <mxGeometry x="405" y="380" width="100" height="63" as="geometry" />
        </mxCell>
        <mxCell id="kRGy6xG7EIOuW9_oT-NQ-53" value="" style="endArrow=block;html=1;rounded=0;entryX=1;entryY=0.5;entryDx=0;entryDy=0;exitX=0;exitY=0.5;exitDx=0;exitDy=0;strokeWidth=3;fontStyle=1;endFill=0;" parent="1" source="kRGy6xG7EIOuW9_oT-NQ-52" target="kRGy6xG7EIOuW9_oT-NQ-51" edge="1">
          <mxGeometry width="50" height="50" relative="1" as="geometry">
            <mxPoint x="575" y="767" as="sourcePoint" />
            <mxPoint x="625" y="717" as="targetPoint" />
          </mxGeometry>
        </mxCell>
        <mxCell id="kRGy6xG7EIOuW9_oT-NQ-54" value="" style="endArrow=none;html=1;rounded=0;entryX=0;entryY=0.5;entryDx=0;entryDy=0;strokeWidth=2;fontStyle=1" parent="1" target="kRGy6xG7EIOuW9_oT-NQ-51" edge="1">
          <mxGeometry width="50" height="50" relative="1" as="geometry">
            <mxPoint x="-30" y="610" as="sourcePoint" />
            <mxPoint x="130" y="163" as="targetPoint" />
          </mxGeometry>
        </mxCell>
        <mxCell id="kRGy6xG7EIOuW9_oT-NQ-55" value="&lt;font style=&quot;font-size: 11px;&quot;&gt;Hapus&lt;/font&gt;" style="ellipse;whiteSpace=wrap;html=1;fontStyle=1" parent="1" vertex="1">
          <mxGeometry x="552" y="396.5" width="66" height="30" as="geometry" />
        </mxCell>
        <mxCell id="kRGy6xG7EIOuW9_oT-NQ-56" value="" style="endArrow=block;html=1;rounded=0;entryX=1;entryY=0.5;entryDx=0;entryDy=0;exitX=0;exitY=0.5;exitDx=0;exitDy=0;strokeWidth=2;fontStyle=1;endFill=0;" parent="1" source="kRGy6xG7EIOuW9_oT-NQ-55" edge="1">
          <mxGeometry width="50" height="50" relative="1" as="geometry">
            <mxPoint x="605" y="767" as="sourcePoint" />
            <mxPoint x="505" y="411" as="targetPoint" />
          </mxGeometry>
        </mxCell>
        <mxCell id="kRGy6xG7EIOuW9_oT-NQ-57" value="&lt;font style=&quot;font-size: 11px;&quot;&gt;Ubah&lt;/font&gt;" style="ellipse;whiteSpace=wrap;html=1;fontStyle=1" parent="1" vertex="1">
          <mxGeometry x="509" y="451" width="66" height="30" as="geometry" />
        </mxCell>
        <mxCell id="kRGy6xG7EIOuW9_oT-NQ-58" value="&lt;font style=&quot;font-size: 11px;&quot;&gt;Tambah&lt;/font&gt;" style="ellipse;whiteSpace=wrap;html=1;fontStyle=1" parent="1" vertex="1">
          <mxGeometry x="422" y="471" width="66" height="30" as="geometry" />
        </mxCell>
        <mxCell id="kRGy6xG7EIOuW9_oT-NQ-59" value="&amp;lt;&amp;lt;include&amp;gt;&amp;gt;" style="text;html=1;strokeColor=none;fillColor=none;align=center;verticalAlign=middle;whiteSpace=wrap;rounded=0;fontStyle=1" parent="1" vertex="1">
          <mxGeometry x="340" y="278" width="60" height="30" as="geometry" />
        </mxCell>
        <mxCell id="kRGy6xG7EIOuW9_oT-NQ-60" value="" style="endArrow=block;html=1;rounded=0;entryX=1;entryY=1;entryDx=0;entryDy=0;exitX=0.224;exitY=0.093;exitDx=0;exitDy=0;strokeWidth=2;exitPerimeter=0;fontStyle=1;endFill=0;" parent="1" source="kRGy6xG7EIOuW9_oT-NQ-57" target="kRGy6xG7EIOuW9_oT-NQ-52" edge="1">
          <mxGeometry width="50" height="50" relative="1" as="geometry">
            <mxPoint x="562" y="422" as="sourcePoint" />
            <mxPoint x="515" y="421" as="targetPoint" />
          </mxGeometry>
        </mxCell>
        <mxCell id="kRGy6xG7EIOuW9_oT-NQ-61" value="" style="endArrow=block;html=1;rounded=0;entryX=0.5;entryY=1;entryDx=0;entryDy=0;exitX=0.5;exitY=0;exitDx=0;exitDy=0;strokeWidth=2;fontStyle=1;endFill=0;" parent="1" source="kRGy6xG7EIOuW9_oT-NQ-58" target="kRGy6xG7EIOuW9_oT-NQ-52" edge="1">
          <mxGeometry width="50" height="50" relative="1" as="geometry">
            <mxPoint x="534" y="464" as="sourcePoint" />
            <mxPoint x="500" y="444" as="targetPoint" />
          </mxGeometry>
        </mxCell>
        <mxCell id="kRGy6xG7EIOuW9_oT-NQ-62" value="&lt;font style=&quot;font-size: 11px;&quot;&gt;Memilih menu Data Alternatif&lt;/font&gt;" style="ellipse;whiteSpace=wrap;html=1;fontStyle=1" parent="1" vertex="1">
          <mxGeometry x="235" y="389.5" width="86" height="46" as="geometry" />
        </mxCell>
        <mxCell id="kRGy6xG7EIOuW9_oT-NQ-63" value="&amp;lt;&amp;lt;include&amp;gt;&amp;gt;" style="text;html=1;strokeColor=none;fillColor=none;align=center;verticalAlign=middle;whiteSpace=wrap;rounded=0;fontStyle=1" parent="1" vertex="1">
          <mxGeometry x="340" y="410.5" width="60" height="30" as="geometry" />
        </mxCell>
        <mxCell id="kRGy6xG7EIOuW9_oT-NQ-67" value="&lt;font style=&quot;font-size: 11px;&quot;&gt;Memilih menu Sub Kriteria&lt;/font&gt;" style="ellipse;whiteSpace=wrap;html=1;fontStyle=1" parent="1" vertex="1">
          <mxGeometry x="232" y="257" width="86" height="46" as="geometry" />
        </mxCell>
        <mxCell id="kRGy6xG7EIOuW9_oT-NQ-68" value="&lt;font style=&quot;font-size: 12px;&quot;&gt;Mengelola Data Sub Kriteria&lt;/font&gt;" style="ellipse;whiteSpace=wrap;html=1;fontStyle=1" parent="1" vertex="1">
          <mxGeometry x="402" y="248.5" width="100" height="63" as="geometry" />
        </mxCell>
        <mxCell id="kRGy6xG7EIOuW9_oT-NQ-69" value="" style="endArrow=block;html=1;rounded=0;entryX=1;entryY=0.5;entryDx=0;entryDy=0;exitX=0;exitY=0.5;exitDx=0;exitDy=0;strokeWidth=3;fontStyle=1;endFill=0;" parent="1" source="kRGy6xG7EIOuW9_oT-NQ-68" target="kRGy6xG7EIOuW9_oT-NQ-67" edge="1">
          <mxGeometry width="50" height="50" relative="1" as="geometry">
            <mxPoint x="412" y="193" as="sourcePoint" />
            <mxPoint x="328" y="194" as="targetPoint" />
          </mxGeometry>
        </mxCell>
        <mxCell id="kRGy6xG7EIOuW9_oT-NQ-70" value="&lt;font style=&quot;font-size: 11px;&quot;&gt;Tambah&lt;/font&gt;" style="ellipse;whiteSpace=wrap;html=1;fontStyle=1" parent="1" vertex="1">
          <mxGeometry x="562" y="265" width="66" height="30" as="geometry" />
        </mxCell>
        <mxCell id="kRGy6xG7EIOuW9_oT-NQ-71" value="&lt;font style=&quot;font-size: 11px;&quot;&gt;Ubah&lt;/font&gt;" style="ellipse;whiteSpace=wrap;html=1;fontStyle=1" parent="1" vertex="1">
          <mxGeometry x="526" y="210" width="66" height="30" as="geometry" />
        </mxCell>
        <mxCell id="kRGy6xG7EIOuW9_oT-NQ-72" value="&lt;font style=&quot;font-size: 11px;&quot;&gt;Hapus&lt;/font&gt;" style="ellipse;whiteSpace=wrap;html=1;fontStyle=1" parent="1" vertex="1">
          <mxGeometry x="526" y="320" width="66" height="30" as="geometry" />
        </mxCell>
        <mxCell id="kRGy6xG7EIOuW9_oT-NQ-73" value="" style="endArrow=block;html=1;rounded=0;entryX=1;entryY=0.5;entryDx=0;entryDy=0;exitX=0;exitY=0.5;exitDx=0;exitDy=0;strokeWidth=2;fontStyle=1;endFill=0;" parent="1" source="kRGy6xG7EIOuW9_oT-NQ-70" target="kRGy6xG7EIOuW9_oT-NQ-68" edge="1">
          <mxGeometry width="50" height="50" relative="1" as="geometry">
            <mxPoint x="559" y="162" as="sourcePoint" />
            <mxPoint x="512" y="162" as="targetPoint" />
          </mxGeometry>
        </mxCell>
        <mxCell id="kRGy6xG7EIOuW9_oT-NQ-74" value="" style="endArrow=block;html=1;rounded=0;entryX=1;entryY=0;entryDx=0;entryDy=0;exitX=0;exitY=1;exitDx=0;exitDy=0;strokeWidth=2;fontStyle=1;endFill=0;" parent="1" source="kRGy6xG7EIOuW9_oT-NQ-71" target="kRGy6xG7EIOuW9_oT-NQ-68" edge="1">
          <mxGeometry width="50" height="50" relative="1" as="geometry">
            <mxPoint x="569" y="172" as="sourcePoint" />
            <mxPoint x="522" y="172" as="targetPoint" />
          </mxGeometry>
        </mxCell>
        <mxCell id="kRGy6xG7EIOuW9_oT-NQ-75" value="" style="endArrow=block;html=1;rounded=0;entryX=1;entryY=1;entryDx=0;entryDy=0;exitX=0;exitY=0;exitDx=0;exitDy=0;strokeWidth=2;fontStyle=1;endFill=0;" parent="1" source="kRGy6xG7EIOuW9_oT-NQ-72" target="kRGy6xG7EIOuW9_oT-NQ-68" edge="1">
          <mxGeometry width="50" height="50" relative="1" as="geometry">
            <mxPoint x="579" y="182" as="sourcePoint" />
            <mxPoint x="532" y="182" as="targetPoint" />
          </mxGeometry>
        </mxCell>
        <mxCell id="kRGy6xG7EIOuW9_oT-NQ-76" value="" style="endArrow=none;html=1;rounded=0;entryX=0;entryY=0.5;entryDx=0;entryDy=0;strokeWidth=2;fontStyle=1" parent="1" target="kRGy6xG7EIOuW9_oT-NQ-67" edge="1">
          <mxGeometry width="50" height="50" relative="1" as="geometry">
            <mxPoint x="-30" y="610" as="sourcePoint" />
            <mxPoint x="130" y="163" as="targetPoint" />
          </mxGeometry>
        </mxCell>
        <mxCell id="kRGy6xG7EIOuW9_oT-NQ-94" value="&lt;font style=&quot;font-size: 11px;&quot;&gt;Memilih menu Data Penilaian&lt;/font&gt;" style="ellipse;whiteSpace=wrap;html=1;fontStyle=1" parent="1" vertex="1">
          <mxGeometry x="235" y="730.5" width="114" height="66.5" as="geometry" />
        </mxCell>
        <mxCell id="kRGy6xG7EIOuW9_oT-NQ-95" value="&lt;font style=&quot;font-size: 12px;&quot;&gt;Mengelola Data Penilaian&lt;/font&gt;" style="ellipse;whiteSpace=wrap;html=1;fontStyle=1" parent="1" vertex="1">
          <mxGeometry x="452" y="734" width="100" height="63" as="geometry" />
        </mxCell>
        <mxCell id="kRGy6xG7EIOuW9_oT-NQ-98" value="&lt;font style=&quot;font-size: 11px;&quot;&gt;Input Nilai&lt;/font&gt;" style="ellipse;whiteSpace=wrap;html=1;fontStyle=1" parent="1" vertex="1">
          <mxGeometry x="586" y="790" width="66" height="30" as="geometry" />
        </mxCell>
        <mxCell id="kRGy6xG7EIOuW9_oT-NQ-101" value="" style="endArrow=block;html=1;rounded=0;entryX=1;entryY=1;entryDx=0;entryDy=0;exitX=0;exitY=0.5;exitDx=0;exitDy=0;strokeWidth=2;fontStyle=1;endFill=0;" parent="1" source="kRGy6xG7EIOuW9_oT-NQ-98" target="kRGy6xG7EIOuW9_oT-NQ-95" edge="1">
          <mxGeometry width="50" height="50" relative="1" as="geometry">
            <mxPoint x="652" y="1121" as="sourcePoint" />
            <mxPoint x="702" y="1071" as="targetPoint" />
          </mxGeometry>
        </mxCell>
        <mxCell id="kRGy6xG7EIOuW9_oT-NQ-102" value="&amp;lt;&amp;lt;include&amp;gt;&amp;gt;" style="text;html=1;strokeColor=none;fillColor=none;align=center;verticalAlign=middle;whiteSpace=wrap;rounded=0;fontStyle=1" parent="1" vertex="1">
          <mxGeometry x="381" y="764.5" width="60" height="30" as="geometry" />
        </mxCell>
        <mxCell id="kRGy6xG7EIOuW9_oT-NQ-103" value="" style="endArrow=block;html=1;rounded=0;entryX=1;entryY=0.5;entryDx=0;entryDy=0;exitX=0;exitY=0.5;exitDx=0;exitDy=0;strokeWidth=3;fontStyle=1;endFill=0;" parent="1" source="kRGy6xG7EIOuW9_oT-NQ-95" target="kRGy6xG7EIOuW9_oT-NQ-94" edge="1">
          <mxGeometry width="50" height="50" relative="1" as="geometry">
            <mxPoint x="598" y="1121" as="sourcePoint" />
            <mxPoint x="648" y="1071" as="targetPoint" />
          </mxGeometry>
        </mxCell>
        <mxCell id="kRGy6xG7EIOuW9_oT-NQ-106" value="&lt;font style=&quot;font-size: 12px;&quot;&gt;Menampilan Hasil Akhir Perangkingan&lt;/font&gt;" style="ellipse;whiteSpace=wrap;html=1;fontStyle=1" parent="1" vertex="1">
          <mxGeometry x="447" y="1023.5" width="131" height="77" as="geometry" />
        </mxCell>
        <mxCell id="kRGy6xG7EIOuW9_oT-NQ-111" value="&lt;span style=&quot;font-size: 11px;&quot;&gt;Cetak Data&lt;/span&gt;" style="ellipse;whiteSpace=wrap;html=1;fontStyle=1" parent="1" vertex="1">
          <mxGeometry x="638" y="1045.5" width="79" height="33" as="geometry" />
        </mxCell>
        <mxCell id="kRGy6xG7EIOuW9_oT-NQ-114" value="" style="endArrow=block;html=1;rounded=0;exitX=0;exitY=0.5;exitDx=0;exitDy=0;strokeWidth=2;fontStyle=1;entryX=1;entryY=0.5;entryDx=0;entryDy=0;endFill=0;" parent="1" source="kRGy6xG7EIOuW9_oT-NQ-111" target="kRGy6xG7EIOuW9_oT-NQ-106" edge="1">
          <mxGeometry width="50" height="50" relative="1" as="geometry">
            <mxPoint x="560" y="1098" as="sourcePoint" />
            <mxPoint x="562" y="1038" as="targetPoint" />
          </mxGeometry>
        </mxCell>
        <mxCell id="kRGy6xG7EIOuW9_oT-NQ-115" value="&lt;font style=&quot;font-size: 11px;&quot;&gt;Memilih menu Data Hasil Akhir&lt;/font&gt;" style="ellipse;whiteSpace=wrap;html=1;fontStyle=1" parent="1" vertex="1">
          <mxGeometry x="235" y="1020" width="127" height="80.5" as="geometry" />
        </mxCell>
        <mxCell id="kRGy6xG7EIOuW9_oT-NQ-117" value="" style="endArrow=block;html=1;rounded=0;entryX=1;entryY=0.5;entryDx=0;entryDy=0;exitX=0;exitY=0.5;exitDx=0;exitDy=0;strokeWidth=3;fontStyle=1;endFill=0;" parent="1" source="kRGy6xG7EIOuW9_oT-NQ-106" target="kRGy6xG7EIOuW9_oT-NQ-115" edge="1">
          <mxGeometry width="50" height="50" relative="1" as="geometry">
            <mxPoint x="431" y="1045" as="sourcePoint" />
            <mxPoint x="651" y="1351" as="targetPoint" />
          </mxGeometry>
        </mxCell>
        <mxCell id="kRGy6xG7EIOuW9_oT-NQ-118" value="&lt;font style=&quot;font-size: 11px;&quot;&gt;Memilih menu Data Perhtitungan&lt;/font&gt;" style="ellipse;whiteSpace=wrap;html=1;fontStyle=1" parent="1" vertex="1">
          <mxGeometry x="235" y="875" width="118" height="67" as="geometry" />
        </mxCell>
        <mxCell id="kRGy6xG7EIOuW9_oT-NQ-119" value="&lt;font style=&quot;font-size: 12px;&quot;&gt;Menampilkan Hasil Perhitungan ARAS&lt;/font&gt;" style="ellipse;whiteSpace=wrap;html=1;fontStyle=1" parent="1" vertex="1">
          <mxGeometry x="477" y="874.5" width="134" height="67.5" as="geometry" />
        </mxCell>
        <mxCell id="kRGy6xG7EIOuW9_oT-NQ-120" value="" style="endArrow=block;html=1;rounded=0;entryX=1;entryY=0.5;entryDx=0;entryDy=0;exitX=0;exitY=0.5;exitDx=0;exitDy=0;strokeWidth=3;fontStyle=1;endFill=0;" parent="1" source="kRGy6xG7EIOuW9_oT-NQ-119" target="kRGy6xG7EIOuW9_oT-NQ-118" edge="1">
          <mxGeometry width="50" height="50" relative="1" as="geometry">
            <mxPoint x="438" y="827" as="sourcePoint" />
            <mxPoint x="354" y="828" as="targetPoint" />
          </mxGeometry>
        </mxCell>
        <mxCell id="kRGy6xG7EIOuW9_oT-NQ-135" value="" style="endArrow=none;html=1;rounded=0;entryX=0;entryY=0.5;entryDx=0;entryDy=0;strokeWidth=2;" parent="1" target="kRGy6xG7EIOuW9_oT-NQ-94" edge="1">
          <mxGeometry width="50" height="50" relative="1" as="geometry">
            <mxPoint x="-30" y="610" as="sourcePoint" />
            <mxPoint x="210" y="560" as="targetPoint" />
          </mxGeometry>
        </mxCell>
        <mxCell id="kRGy6xG7EIOuW9_oT-NQ-139" value="" style="endArrow=none;html=1;rounded=0;entryX=0;entryY=0.5;entryDx=0;entryDy=0;strokeWidth=2;" parent="1" target="kRGy6xG7EIOuW9_oT-NQ-118" edge="1">
          <mxGeometry width="50" height="50" relative="1" as="geometry">
            <mxPoint x="-30" y="610" as="sourcePoint" />
            <mxPoint x="120" y="590" as="targetPoint" />
          </mxGeometry>
        </mxCell>
        <mxCell id="kRGy6xG7EIOuW9_oT-NQ-141" value="&lt;font style=&quot;font-size: 11px;&quot;&gt;Ubah&lt;/font&gt;" style="ellipse;whiteSpace=wrap;html=1;fontStyle=1" parent="1" vertex="1">
          <mxGeometry x="586" y="690" width="66" height="30" as="geometry" />
        </mxCell>
        <mxCell id="kRGy6xG7EIOuW9_oT-NQ-142" value="" style="endArrow=block;html=1;rounded=0;entryX=0.799;entryY=0.105;entryDx=0;entryDy=0;entryPerimeter=0;strokeWidth=2;fontStyle=1;endFill=0;" parent="1" edge="1">
          <mxGeometry width="50" height="50" relative="1" as="geometry">
            <mxPoint x="594" y="715" as="sourcePoint" />
            <mxPoint x="532" y="741" as="targetPoint" />
          </mxGeometry>
        </mxCell>
        <mxCell id="kRGy6xG7EIOuW9_oT-NQ-150" value="&amp;lt;&amp;lt;include&amp;gt;&amp;gt;" style="text;html=1;strokeColor=none;fillColor=none;align=center;verticalAlign=middle;whiteSpace=wrap;rounded=0;fontStyle=1" parent="1" vertex="1">
          <mxGeometry x="381" y="910" width="60" height="30" as="geometry" />
        </mxCell>
        <mxCell id="kRGy6xG7EIOuW9_oT-NQ-151" value="&amp;lt;&amp;lt;include&amp;gt;&amp;gt;" style="text;html=1;strokeColor=none;fillColor=none;align=center;verticalAlign=middle;whiteSpace=wrap;rounded=0;fontStyle=1" parent="1" vertex="1">
          <mxGeometry x="381" y="1060" width="60" height="30" as="geometry" />
        </mxCell>
        <mxCell id="kRGy6xG7EIOuW9_oT-NQ-152" value="" style="endArrow=none;html=1;rounded=0;entryX=0;entryY=0.5;entryDx=0;entryDy=0;strokeWidth=2;" parent="1" target="kRGy6xG7EIOuW9_oT-NQ-115" edge="1">
          <mxGeometry width="50" height="50" relative="1" as="geometry">
            <mxPoint x="-30" y="610" as="sourcePoint" />
            <mxPoint x="70" y="710" as="targetPoint" />
          </mxGeometry>
        </mxCell>
      </root>
    </mxGraphModel>
  </diagram>
</mxfile>
